<svg width="21" height="25" viewBox="0 0 21 25" fill="none" xmlns="http://www.w3.org/2000/svg">
<path d="M0.84438 13.3753C0.691704 12.0522 0.818934 10.7748 1.165 9.59407C2.31516 5.67029 5.92341 2.78471 10.2034 2.73382V0.168859C10.2034 0.0263612 10.3815 -0.0499768 10.4986 0.0365396L15.7761 3.91451C15.8626 3.98067 15.8626 4.11299 15.7761 4.17406L10.5037 8.05204C10.3815 8.13855 10.2085 8.06222 10.2085 7.91972V5.35985C7.39419 5.40565 4.99208 7.14107 3.95897 9.59407C3.5671 10.5203 3.36862 11.5432 3.42461 12.6171C3.50094 14.0929 4.05567 15.4517 4.93101 16.551C5.39922 17.1363 5.28725 17.9913 4.68164 18.434C4.10656 18.8564 3.30247 18.7394 2.8597 18.1796C1.7757 16.8258 1.05304 15.1769 0.84438 13.3753ZM16.0815 8.449C16.9619 9.54317 17.5166 10.9071 17.5879 12.3829C17.6438 13.4619 17.4403 14.4848 17.0535 15.4059C16.0204 17.8589 13.6183 19.5994 10.804 19.6402V17.0803C10.804 16.9378 10.6258 16.8615 10.5088 16.948L5.23127 20.8259C5.14476 20.8921 5.14476 21.0244 5.23127 21.0855L10.5037 24.9635C10.6258 25.05 10.7989 24.9736 10.7989 24.8311V22.2662C15.0789 22.2204 18.6922 19.3348 19.8373 15.4059C20.1834 14.2252 20.3055 12.9479 20.1579 11.6247C19.9543 9.82308 19.2317 8.17418 18.1477 6.82045C17.6998 6.26064 16.9008 6.14359 16.3257 6.56599C15.7252 7.00875 15.6132 7.86374 16.0815 8.449Z" fill="black"/>
</svg>
