<svg width="24" height="26" viewBox="0 0 24 26" fill="none" xmlns="http://www.w3.org/2000/svg">
<path d="M23.9914 25.3524L22.0175 7.2528C21.9846 6.96139 21.7215 6.73474 21.4254 6.73474H17.7737V5.63387C17.7737 2.52553 15.2076 0 12.0493 0C8.89111 0 6.32504 2.52553 6.32504 5.63387V6.73474H2.57463C2.27854 6.73474 2.01536 6.96139 1.98246 7.2528L0.00855783 25.3524C-0.0243405 25.5143 0.0414561 25.6762 0.140151 25.8057C0.238846 25.9352 0.403338 26 0.56783 26H23.4322C23.5967 26 23.7612 25.9352 23.8598 25.8057C23.9585 25.6762 24.0243 25.5143 23.9914 25.3524ZM17.1815 10.005C17.4776 10.005 17.7079 10.2316 17.7079 10.523C17.7079 10.8144 17.4776 11.0411 17.1815 11.0411C16.8854 11.0411 16.6551 10.8144 16.6551 10.523C16.6551 10.2316 16.8854 10.005 17.1815 10.005ZM7.50938 5.63387C7.50938 3.1731 9.54907 1.16563 12.0493 1.16563C14.5496 1.16563 16.5893 3.1731 16.5893 5.63387V6.73474H7.50938V5.63387ZM6.91721 10.005C7.21329 10.005 7.44358 10.2316 7.44358 10.523C7.44358 10.8144 7.21329 11.0411 6.91721 11.0411C6.62112 11.0411 6.39083 10.8144 6.39083 10.523C6.39083 10.2316 6.62112 10.005 6.91721 10.005ZM1.25869 24.802L3.101 7.86799H6.32504V8.93649C5.66707 9.16314 5.20649 9.77833 5.20649 10.4907C5.20649 11.3973 5.96316 12.142 6.88431 12.142C7.80546 12.142 8.56213 11.3973 8.56213 10.4907C8.56213 9.77833 8.10155 9.16314 7.44358 8.93649V7.86799H16.5235V8.93649C15.8656 9.16314 15.405 9.77833 15.405 10.4907C15.405 11.3973 16.1616 12.142 17.0828 12.142C18.0039 12.142 18.7606 11.3973 18.7606 10.4907C18.7606 9.77833 18.3 9.16314 17.6421 8.93649V7.86799H20.9977L22.84 24.802H1.25869Z" fill="#B80C09"/>
</svg>
