<svg width="22" height="23" viewBox="0 0 22 23" fill="none" xmlns="http://www.w3.org/2000/svg">
<path d="M21.9922 21.87L20.1827 6.32988C20.1526 6.07968 19.9113 5.88508 19.6399 5.88508H16.2925V4.93989C16.2925 2.27111 13.9403 0.102722 11.0452 0.102722C8.15018 0.102722 5.79795 2.27111 5.79795 4.93989V5.88508H2.36008C2.08866 5.88508 1.84741 6.07968 1.81725 6.32988L0.00784468 21.87C-0.0223121 22.009 0.0380014 22.148 0.128472 22.2592C0.218942 22.3704 0.369726 22.426 0.52051 22.426H21.4795C21.6303 22.426 21.7811 22.3704 21.8715 22.2592C21.962 22.148 22.0223 22.009 21.9922 21.87ZM15.7497 8.69286C16.0211 8.69286 16.2322 8.88746 16.2322 9.13766C16.2322 9.38785 16.0211 9.58245 15.7497 9.58245C15.4783 9.58245 15.2672 9.38785 15.2672 9.13766C15.2672 8.88746 15.4783 8.69286 15.7497 8.69286ZM6.8836 4.93989C6.8836 2.8271 8.75332 1.10351 11.0452 1.10351C13.3372 1.10351 15.2069 2.8271 15.2069 4.93989V5.88508H6.8836V4.93989ZM6.34077 8.69286C6.61218 8.69286 6.82328 8.88746 6.82328 9.13766C6.82328 9.38785 6.61218 9.58245 6.34077 9.58245C6.06936 9.58245 5.85826 9.38785 5.85826 9.13766C5.85826 8.88746 6.06936 8.69286 6.34077 8.69286ZM1.1538 21.3974L2.84258 6.85807H5.79795V7.77547C5.19481 7.97006 4.77262 8.49826 4.77262 9.10986C4.77262 9.88825 5.46623 10.5276 6.31062 10.5276C7.15501 10.5276 7.84861 9.88825 7.84861 9.10986C7.84861 8.49826 7.42642 7.97006 6.82328 7.77547V6.85807H15.1466V7.77547C14.5434 7.97006 14.1212 8.49826 14.1212 9.10986C14.1212 9.88825 14.8148 10.5276 15.6592 10.5276C16.5036 10.5276 17.1972 9.88825 17.1972 9.10986C17.1972 8.49826 16.775 7.97006 16.1719 7.77547V6.85807H19.2479L20.9367 21.3974H1.1538Z" fill="#27272E"/>
</svg>
