<svg width="135" height="131" viewBox="0 0 135 131" fill="none" xmlns="http://www.w3.org/2000/svg">
<path d="M85.374 57.101C85.374 80.969 66.015 100.328 42.147 100.328C24.786 100.328 9.80099 90.095 2.94299 75.326C4.91399 75.623 6.91199 75.785 8.96399 75.785C30.726 75.785 48.384 58.127 48.384 36.365C48.384 28.022 45.792 20.273 41.364 13.901C41.634 13.901 41.904 13.901 42.174 13.901C66.015 13.874 85.374 33.233 85.374 57.101Z" fill="url(#paint0_linear)"/>
<path d="M85.374 57.101C85.374 80.969 66.015 100.328 42.147 100.328C25.407 100.328 10.881 90.797 3.69897 76.865C11.61 85.937 23.274 91.688 36.288 91.688C60.156 91.688 79.515 72.329 79.515 48.461C79.515 41.333 77.787 34.61 74.736 28.697C81.351 36.284 85.374 46.22 85.374 57.101Z" fill="#670201"/>
<path d="M68.5174 32.6717C69.2519 31.5485 67.6419 29.1958 64.9213 27.4166C62.2008 25.6375 59.3999 25.1057 58.6654 26.2289C57.9309 27.352 59.5409 29.7048 62.2614 31.484C64.982 33.2631 67.7829 33.7949 68.5174 32.6717Z" fill="#820403"/>
<path d="M63.936 32.396C63.396 32.153 62.829 31.829 62.262 31.451C59.535 29.669 57.942 27.32 58.671 26.213C59.319 25.241 61.533 25.511 63.909 26.807C61.803 25.835 59.94 25.673 59.373 26.564C58.644 27.671 60.264 30.02 62.964 31.802C63.288 32.018 63.612 32.234 63.936 32.396Z" fill="#670201"/>
<path d="M65.3477 36.5484C65.5436 36.2489 65.1055 35.6158 64.3692 35.1343C63.6329 34.6528 62.8772 34.5052 62.6814 34.8047C62.4855 35.1042 62.9236 35.7374 63.6599 36.2189C64.3962 36.7004 65.1519 36.8479 65.3477 36.5484Z" fill="#820403"/>
<path d="M64.125 36.473C63.963 36.392 63.828 36.311 63.666 36.23C62.937 35.744 62.478 35.096 62.694 34.799C62.856 34.529 63.477 34.61 64.125 34.961C63.558 34.691 63.045 34.664 62.883 34.907C62.694 35.204 63.126 35.852 63.855 36.338C63.936 36.365 64.044 36.419 64.125 36.473Z" fill="#670201"/>
<path d="M72.8489 37.1466C73.1509 36.6848 72.4953 35.7217 71.3846 34.9954C70.2739 34.269 69.1287 34.0545 68.8268 34.5163C68.5248 34.978 69.1804 35.9411 70.2911 36.6675C71.4018 37.3938 72.5469 37.6083 72.8489 37.1466Z" fill="#820403"/>
<path d="M70.983 37.04C70.767 36.932 70.524 36.797 70.308 36.662C69.201 35.933 68.553 34.988 68.85 34.529C69.12 34.124 70.011 34.259 70.983 34.772C70.119 34.367 69.363 34.313 69.147 34.664C68.85 35.123 69.498 36.068 70.605 36.797C70.713 36.878 70.848 36.959 70.983 37.04Z" fill="#670201"/>
<path d="M33.669 50.432L35.991 46.976L45.819 53.618L43.497 57.047L33.669 50.432Z" fill="url(#paint1_linear)"/>
<path d="M53.136 63.095C52.947 64.85 52.866 66.254 52.866 67.307C52.866 67.712 52.731 68.09 52.488 68.414C52.245 68.738 51.894 68.9 51.462 68.9C50.544 68.9 50.058 68.36 50.058 67.28C50.058 66.686 50.274 64.661 50.706 61.232C51.057 58.451 51.246 56.804 51.246 56.264C51.246 55.643 51.219 55.319 51.165 55.211C50.679 54.968 50.436 54.509 50.436 53.861C50.436 53.24 51.462 52.673 53.514 52.214C55.566 51.755 57.321 51.512 58.752 51.512C60.453 51.512 61.803 51.863 62.829 52.565C63.828 53.267 64.341 54.212 64.341 55.4C64.341 57.128 63.423 58.64 61.56 59.936C59.697 61.232 57.456 62.15 54.81 62.69C53.838 62.906 53.271 63.041 53.136 63.095ZM54.162 54.59L53.487 60.53C55.647 60.179 57.564 59.531 59.211 58.613C60.858 57.695 61.668 56.696 61.668 55.643C61.668 54.374 60.669 53.753 58.671 53.753C57.321 53.753 55.809 54.023 54.162 54.59Z" fill="#670201"/>
<path d="M76.329 63.014C76.086 62.987 75.384 63.095 74.223 63.284C73.062 63.473 72.198 63.662 71.604 63.824C70.146 64.256 69.255 64.445 68.877 64.445C68.634 64.445 68.418 64.418 68.256 64.337C68.148 64.31 68.094 64.283 68.067 64.283C67.986 64.283 67.797 64.661 67.419 65.39C66.798 66.659 66.285 67.496 65.88 67.901C65.475 68.306 65.124 68.522 64.8 68.522C64.503 68.522 64.152 68.36 63.747 68.063C63.342 67.766 63.153 67.442 63.153 67.118C63.153 66.767 63.666 65.876 64.692 64.445C66.609 61.799 68.04 59.585 68.985 57.803C70.416 55.103 71.469 53.267 72.198 52.295C72.927 51.323 73.494 50.837 73.926 50.837C75.06 50.837 75.627 51.269 75.627 52.106C75.627 52.376 75.6 52.619 75.546 52.835C75.897 53.969 76.194 54.806 76.41 55.373C76.491 55.508 77.166 57.29 78.435 60.746C78.786 61.664 79.218 62.663 79.812 63.689C80.406 64.715 80.838 65.417 81.189 65.714C82.35 66.686 82.944 67.469 82.944 68.063C82.944 68.522 82.782 68.9 82.485 69.251C82.188 69.575 81.837 69.737 81.432 69.737C80.514 69.737 79.407 68.711 78.192 66.632C76.95 64.553 76.329 63.338 76.329 63.014ZM75.384 60.611C74.952 59.45 74.493 58.181 74.061 56.831C73.71 55.778 73.494 55.211 73.467 55.211C73.413 55.292 72.36 57.182 70.254 60.881C70.065 61.205 69.957 61.421 69.903 61.529L75.384 60.611Z" fill="#670201"/>
<path d="M39.096 82.184C38.691 81.617 37.989 80.915 37.017 80.078C36.045 79.268 35.559 78.593 35.559 78.053C35.559 77.648 35.64 77.324 35.829 77.027C36.018 76.757 36.234 76.568 36.45 76.46C36.693 76.352 37.206 76.217 38.016 76.001C40.041 75.515 41.769 75.002 43.173 74.462C43.443 74.354 43.686 74.3 43.902 74.3C44.442 74.3 44.685 74.597 44.685 75.218C44.685 75.569 44.253 76.001 43.362 76.46C42.471 76.919 40.986 77.405 38.853 77.891C38.556 77.945 38.421 78.026 38.421 78.188C38.421 78.296 38.718 78.566 39.339 79.025C41.688 80.861 42.876 83.372 42.876 86.531C42.876 87.773 42.525 89.096 41.85 90.554C41.175 92.012 40.257 93.092 39.15 93.767C38.016 94.469 36.936 94.82 35.856 94.82C34.83 94.82 34.047 94.361 33.48 93.443C32.913 92.525 32.616 91.445 32.616 90.23C32.616 88.259 33.237 86.369 34.506 84.641C35.775 82.886 37.098 82.022 38.502 82.022L39.096 82.184ZM35.397 90.176C35.397 91.769 35.64 92.552 36.126 92.552C36.531 92.552 37.098 92.282 37.8 91.715C38.502 91.148 39.096 90.365 39.528 89.312C39.96 88.259 40.176 87.26 40.176 86.342C40.176 85.586 40.122 85.019 39.987 84.587C39.852 84.155 39.744 83.939 39.636 83.939C38.475 83.939 37.476 84.668 36.639 86.153C35.802 87.638 35.397 88.988 35.397 90.176Z" fill="#820403"/>
<path d="M52.7581 90.446C52.0291 91.769 51.1921 92.822 50.2471 93.605C49.3021 94.388 48.3301 94.766 47.3311 94.766C46.7371 94.766 46.1701 94.469 45.5761 93.848C44.9821 93.227 44.6851 92.309 44.6851 91.04C44.6851 90.149 44.9011 88.799 45.3601 86.99C45.7651 85.505 45.9541 84.371 45.9541 83.588C46.2511 82.967 46.7371 82.643 47.3581 82.643C47.7901 82.643 48.1411 82.778 48.4111 83.075C48.6811 83.372 48.7891 83.669 48.7891 83.939C48.7891 84.479 48.6001 85.235 48.2221 86.234C48.0061 86.828 47.7631 87.665 47.5201 88.718C47.2771 89.798 47.1421 90.473 47.1421 90.77C47.1421 91.769 47.3581 92.282 47.7631 92.282C48.4111 92.282 49.3021 91.661 50.4361 90.392C51.5431 89.123 52.2721 87.854 52.6231 86.531C52.9741 85.235 53.2711 84.398 53.5411 83.993C53.8111 83.588 54.1891 83.399 54.6481 83.399C55.4311 83.399 55.8361 83.831 55.8361 84.722C55.8361 84.857 55.7821 85.1 55.6471 85.478C55.2151 86.801 54.9721 88.313 54.9721 89.987C54.9721 91.958 55.2961 93.119 55.9711 93.497C56.1871 93.632 56.2951 93.794 56.2951 93.983C56.2951 94.253 56.106 94.523 55.7281 94.766C55.35 95.009 54.9721 95.117 54.6211 95.117C54.0271 95.117 53.5681 94.685 53.2441 93.848C52.9201 93.011 52.7581 91.877 52.7581 90.446Z" fill="#820403"/>
<path d="M70.794 93.524C70.794 93.713 70.686 93.956 70.443 94.307C70.2 94.631 69.768 94.82 69.174 94.82C68.418 94.82 67.77 94.172 67.176 92.903C66.582 91.634 66.177 90.23 65.907 88.745C65.826 88.232 65.691 87.638 65.556 86.99C65.529 86.882 65.502 86.639 65.448 86.288C65.421 85.91 65.367 85.694 65.367 85.667C65.259 85.91 65.124 86.18 64.989 86.504C64.044 88.61 63.018 90.5 61.884 92.228L61.749 92.498C61.695 92.579 61.641 92.66 61.587 92.714C60.642 94.388 59.886 95.225 59.292 95.225C58.428 95.225 58.023 94.847 58.023 94.091C58.023 93.497 58.428 92.741 59.211 91.796C60.183 90.608 61.452 88.556 62.991 85.613L64.611 82.535C64.773 82.238 65.07 82.076 65.475 82.076C65.718 82.076 66.015 82.157 66.339 82.292C66.663 82.427 66.906 82.616 67.014 82.805C67.122 83.021 67.23 83.345 67.338 83.804C67.878 86.342 68.364 88.367 68.796 89.825C69.228 91.283 69.714 92.228 70.227 92.606C70.605 92.795 70.794 93.092 70.794 93.524Z" fill="#820403"/>
<path d="M82.809 90.689C82.809 91.472 82.161 92.417 80.838 93.497C79.515 94.577 78.03 95.144 76.356 95.144C75.087 95.144 74.088 94.739 73.359 93.929C72.63 93.119 72.252 92.012 72.252 90.581C72.252 88.475 73.008 86.477 74.493 84.641C75.978 82.805 77.571 81.86 79.272 81.86C80.109 81.86 80.784 82.13 81.297 82.67C81.81 83.21 82.08 83.831 82.08 84.587C82.08 85.91 81.459 87.152 80.19 88.34C78.921 89.528 77.328 90.338 75.357 90.797C75.141 90.851 75.006 90.986 75.006 91.202C75.006 91.553 75.168 91.904 75.492 92.228C75.816 92.552 76.248 92.714 76.788 92.714C78.3 92.714 79.812 91.931 81.297 90.365C81.594 90.068 81.864 89.906 82.134 89.906C82.566 89.933 82.809 90.203 82.809 90.689ZM75.195 88.691C76.383 88.448 77.436 87.935 78.354 87.152C79.272 86.369 79.731 85.667 79.731 85.046C79.731 84.803 79.65 84.587 79.515 84.425C79.38 84.263 79.191 84.182 78.975 84.182C78.327 84.182 77.598 84.668 76.788 85.64C75.978 86.585 75.465 87.611 75.195 88.691Z" fill="#820403"/>
<path d="M87.6691 93.875C87.5881 94.658 87.1561 95.036 86.3731 95.036C85.3741 95.036 84.8881 94.334 84.8881 92.903C84.8881 90.581 85.0231 88.61 85.2661 86.99C85.4551 85.721 85.5631 84.452 85.5631 83.237C85.5631 82.94 85.6441 82.697 85.8331 82.508C86.0221 82.319 86.2921 82.211 86.6161 82.211C87.7501 82.211 88.3171 82.886 88.3171 84.263C88.3171 84.695 88.1281 85.856 87.7231 87.665C87.4801 88.745 87.3721 89.528 87.3721 90.041C89.5321 85.316 91.4761 82.94 93.2041 82.94C93.9061 82.94 94.4731 83.21 94.9051 83.777C95.3371 84.344 95.5531 85.586 95.5801 87.476C95.5801 89.231 95.6881 90.095 95.8501 90.095C95.9851 90.095 96.4441 89.258 97.2541 87.557C98.1451 85.667 98.9281 84.425 99.5491 83.831C100.17 83.237 100.845 82.913 101.547 82.913C102.384 82.913 103.005 83.264 103.356 83.993C103.734 84.722 104.004 85.937 104.139 87.638C104.247 88.988 104.409 90.014 104.598 90.716C104.787 91.418 105.111 91.877 105.597 92.093C105.975 92.282 106.164 92.552 106.164 92.903C106.164 93.227 105.948 93.551 105.516 93.875C105.084 94.199 104.652 94.361 104.193 94.361C103.41 94.361 102.816 93.983 102.384 93.227C101.952 92.471 101.655 90.959 101.52 88.664C101.439 87.557 101.358 86.828 101.25 86.477C101.169 86.126 101.007 85.937 100.818 85.937C100.656 85.937 100.413 86.207 100.089 86.747C99.7651 87.287 99.2251 88.367 98.4421 89.96C97.7671 91.418 97.1731 92.417 96.6601 92.984C96.1741 93.551 95.6341 93.848 95.0671 93.848C94.6351 93.848 94.2031 93.659 93.7441 93.281C93.3121 92.903 93.0691 91.526 93.0151 89.177C92.9881 87.071 92.8531 86.018 92.6101 86.018C92.2861 86.018 91.5301 86.963 90.3151 88.826C89.1811 90.716 88.2901 92.39 87.6691 93.875Z" fill="#820403"/>
<path d="M118.557 88.853C118.044 90.608 117.099 92.12 115.668 93.308C114.264 94.523 112.833 95.117 111.429 95.117C110.322 95.117 109.404 94.712 108.675 93.902C107.946 93.092 107.595 92.066 107.595 90.878C107.595 88.934 108.27 87.017 109.593 85.127C110.916 83.237 112.536 82.292 114.426 82.292C115.722 82.292 116.748 82.778 117.558 83.723C118.368 84.668 118.746 85.802 118.746 87.125C118.746 87.719 118.665 88.286 118.557 88.853ZM112.671 85.289C112.131 85.748 111.618 86.504 111.132 87.53C110.646 88.556 110.376 89.582 110.376 90.608C110.376 91.229 110.484 91.742 110.727 92.147C110.97 92.552 111.267 92.768 111.645 92.768C112.59 92.768 113.562 92.201 114.561 91.094C115.56 89.987 116.073 88.745 116.073 87.368C116.073 86.585 115.911 85.964 115.587 85.451C115.263 84.938 114.804 84.695 114.21 84.695C113.616 84.695 113.13 84.884 112.671 85.289Z" fill="#820403"/>
<path d="M128.601 83.075C129.33 83.453 129.924 84.074 130.302 84.938C130.707 85.802 130.896 86.801 130.896 87.935C130.896 89.906 130.275 91.607 129.006 93.065C127.737 94.523 126.387 95.252 124.902 95.252C123.552 95.252 122.499 94.739 121.743 93.713C120.987 92.687 120.582 91.202 120.582 89.204C120.582 86.855 121.014 84.479 121.851 82.103C122.688 79.7 123.714 77.918 124.929 76.703C126.144 75.488 127.413 74.894 128.763 74.894C129.627 74.894 130.329 75.164 130.869 75.704C131.382 76.244 131.652 77 131.652 77.945C131.652 78.62 131.355 79.43 130.788 80.375C130.248 81.347 129.519 82.238 128.601 83.075ZM128.088 88.178C128.088 87.314 127.953 86.558 127.71 85.937C127.467 85.316 127.089 84.992 126.603 84.911C126.576 84.911 126.441 85.019 126.171 85.208L123.498 87.206C123.417 87.827 123.363 88.502 123.363 89.177C123.363 91.607 123.957 92.822 125.172 92.822C126.009 92.822 126.711 92.336 127.278 91.391C127.845 90.446 128.115 89.393 128.115 88.232V88.178H128.088ZM123.984 84.236C126.333 82.319 127.764 80.969 128.277 80.159C128.79 79.349 129.033 78.701 129.033 78.242C129.033 77.621 128.844 77.297 128.439 77.297C127.71 77.297 126.954 77.918 126.117 79.187C125.28 80.456 124.578 82.157 123.984 84.236Z" fill="#820403"/>
<path d="M53.406 63.311C53.217 65.066 53.136 66.47 53.136 67.523C53.136 67.928 53.001 68.306 52.758 68.63C52.515 68.954 52.164 69.116 51.732 69.116C50.814 69.116 50.328 68.576 50.328 67.496C50.328 66.902 50.544 64.877 50.976 61.448C51.327 58.667 51.516 57.02 51.516 56.48C51.516 55.859 51.489 55.535 51.435 55.427C50.949 55.184 50.706 54.725 50.706 54.077C50.706 53.456 51.732 52.889 53.784 52.43C55.836 51.971 57.591 51.728 59.022 51.728C60.723 51.728 62.073 52.079 63.099 52.781C64.098 53.483 64.611 54.428 64.611 55.616C64.611 57.344 63.693 58.856 61.83 60.152C59.967 61.448 57.726 62.366 55.053 62.906C54.108 63.122 53.541 63.257 53.406 63.311ZM54.405 54.806L53.73 60.746C55.89 60.395 57.807 59.747 59.454 58.829C61.101 57.911 61.911 56.912 61.911 55.859C61.911 54.59 60.912 53.969 58.914 53.969C57.564 53.969 56.052 54.239 54.405 54.806Z" fill="#820403"/>
<path d="M76.599 63.23C76.356 63.203 75.654 63.311 74.493 63.5C73.332 63.689 72.468 63.878 71.874 64.04C70.416 64.472 69.525 64.661 69.147 64.661C68.904 64.661 68.688 64.634 68.526 64.553C68.418 64.526 68.364 64.499 68.337 64.499C68.256 64.499 68.067 64.877 67.689 65.606C67.068 66.875 66.555 67.712 66.15 68.117C65.745 68.522 65.394 68.738 65.07 68.738C64.773 68.738 64.422 68.576 64.017 68.279C63.612 67.982 63.423 67.658 63.423 67.334C63.423 66.983 63.936 66.092 64.962 64.661C66.879 62.015 68.31 59.801 69.255 58.019C70.686 55.319 71.739 53.483 72.468 52.511C73.197 51.539 73.764 51.053 74.196 51.053C75.33 51.053 75.897 51.485 75.897 52.322C75.897 52.592 75.87 52.835 75.816 53.051C76.167 54.185 76.464 55.022 76.68 55.589C76.761 55.724 77.436 57.506 78.705 60.962C79.056 61.88 79.488 62.879 80.082 63.905C80.676 64.931 81.108 65.633 81.459 65.93C82.62 66.902 83.214 67.685 83.214 68.279C83.214 68.738 83.052 69.116 82.755 69.467C82.458 69.791 82.107 69.953 81.702 69.953C80.784 69.953 79.677 68.927 78.462 66.848C77.22 64.769 76.599 63.554 76.599 63.23ZM75.654 60.827C75.222 59.666 74.763 58.397 74.331 57.047C73.98 55.994 73.764 55.427 73.737 55.427C73.683 55.508 72.63 57.398 70.524 61.097C70.335 61.421 70.227 61.637 70.173 61.745L75.654 60.827Z" fill="#820403"/>
<defs>
<linearGradient id="paint0_linear" x1="70.8266" y1="85.1809" x2="54.7445" y2="69.4447" gradientUnits="userSpaceOnUse">
<stop offset="0.0123762" stop-color="#8F0604"/>
<stop offset="1" stop-color="#B80C09"/>
</linearGradient>
<linearGradient id="paint1_linear" x1="34.6892" y1="53.0562" x2="38.0381" y2="52.3674" gradientUnits="userSpaceOnUse">
<stop offset="0.0123762" stop-color="#8F0604"/>
<stop offset="1" stop-color="#B80C09"/>
</linearGradient>
</defs>
</svg>
